<svg id="Lager_1" data-name="Lager 1" xmlns="http://www.w3.org/2000/svg" viewBox="0 0 36.85 36.85"><defs><style>.cls-1{fill:#ff5a5a;}</style></defs><title>kalendarium_color</title><path class="cls-1" d="M18.63,16.59c0-2,1.14-3.46,3.12-3.46a3.07,3.07,0,0,1,2,.69l-.65,1.09a1.78,1.78,0,0,0-1.34-.52,1.75,1.75,0,0,0-1.67,1.9.66.66,0,0,0,0,.14,2.17,2.17,0,0,1,1.71-.86,2.13,2.13,0,0,1,2.29,2.18,2.36,2.36,0,0,1-2.57,2.3c-2,0-2.89-1.57-2.89-3.46m4,1.21c0-.7-.6-1-1.25-1a1.68,1.68,0,0,0-1.3.64,1.34,1.34,0,0,0,1.35,1.36,1.09,1.09,0,0,0,1.2-1"/><path class="cls-1" d="M13.08,19.93V18.82c2.74-2,3.55-2.73,3.55-3.55,0-.59-.54-.88-1.09-.88a2.38,2.38,0,0,0-1.8.78l-.81-.95a3.42,3.42,0,0,1,2.58-1.09c1.43,0,2.57.8,2.57,2.14,0,1.14-.95,2.14-2.69,3.41h2.74v1.25Z"/><path class="cls-1" d="M23.8,21.92H13.21v-.64H23.8Zm0-9.84H13.21v-.65H23.8Z"/><path class="cls-1" d="M10,7.37v21.9H21.68L27,23.93V7.37ZM22.05,27.49V24.3h3.18Zm3.42-4.19H21.05v4.41H11.54V8.91H25.47Z"/><path class="cls-1" d="M18.42,36.85A18.43,18.43,0,1,1,36.85,18.43,18.44,18.44,0,0,1,18.42,36.85ZM18.42,2A16.44,16.44,0,1,0,34.86,18.43,16.45,16.45,0,0,0,18.42,2Z"/></svg>