<svg id="Lager_1" data-name="Lager 1" xmlns="http://www.w3.org/2000/svg" viewBox="0 0 198.42 198.43"><defs><style>.cls-1{fill:#fff;}</style></defs><title>logo_vit_prickar</title><rect class="cls-1" x="117.1" y="28.37" width="2.47" height="41.62" transform="translate(26.08 138.12) rotate(-66.52)"/><path class="cls-1" d="M99.21,0a99.22,99.22,0,1,0,99.21,99.21A99.33,99.33,0,0,0,99.21,0Zm0,193.82a94.61,94.61,0,1,1,94.61-94.61A94.71,94.71,0,0,1,99.21,193.82Z"/><path class="cls-1" d="M66.58,14.55a.67.67,0,0,0,.24,0,.67.67,0,1,0-.24,0Z"/><path class="cls-1" d="M48,24.24a.63.63,0,0,0,.37-.12.65.65,0,0,0,.17-.91.65.65,0,1,0-1.08.74A.64.64,0,0,0,48,24.24Z"/><path class="cls-1" d="M45.87,25.74a.65.65,0,0,0,.53-1,.66.66,0,1,0-1.06.77A.64.64,0,0,0,45.87,25.74Z"/><path class="cls-1" d="M64.15,15.53a.57.57,0,0,0,.25-.06.65.65,0,0,0,.36-.86.67.67,0,0,0-.86-.35.65.65,0,0,0-.36.86A.67.67,0,0,0,64.15,15.53Z"/><path class="cls-1" d="M43.76,27.31a.73.73,0,0,0,.4-.13.67.67,0,0,0,.12-.93.66.66,0,1,0-1,.8A.64.64,0,0,0,43.76,27.31Z"/><path class="cls-1" d="M54.72,20.1A.61.61,0,0,0,55,20a.66.66,0,0,0,.25-.9.67.67,0,0,0-.89-.25.66.66,0,0,0-.25.9A.64.64,0,0,0,54.72,20.1Z"/><path class="cls-1" d="M186,72.84a.65.65,0,0,0,.63.47.63.63,0,0,0,.19,0,.67.67,0,0,0,.44-.82.66.66,0,1,0-1.26.38Z"/><path class="cls-1" d="M41.69,28.93a.63.63,0,0,0,.42-.14h0a.66.66,0,1,0-.92-.09A.66.66,0,0,0,41.69,28.93Z"/><path class="cls-1" d="M39.68,30.62a.66.66,0,0,0,.43-.16.64.64,0,0,0,.07-.92.66.66,0,0,0-.93-.08.66.66,0,0,0,.43,1.16Z"/><path class="cls-1" d="M52.45,21.42a.74.74,0,0,0,.34-.1.66.66,0,1,0-.91-.23A.67.67,0,0,0,52.45,21.42Z"/><path class="cls-1" d="M57,18.86a.64.64,0,0,0,.3-.08.66.66,0,1,0-.61-1.16.65.65,0,0,0-.27.88A.64.64,0,0,0,57,18.86Z"/><path class="cls-1" d="M37.72,32.36a.7.7,0,0,0,.44-.17.65.65,0,0,0,0-.93.67.67,0,0,0-.93,0,.65.65,0,0,0,0,.93A.64.64,0,0,0,37.72,32.36Z"/><path class="cls-1" d="M50.21,22.8a.69.69,0,0,0,.36-.11.66.66,0,1,0-.71-1.11.66.66,0,0,0-.2.91A.65.65,0,0,0,50.21,22.8Z"/><path class="cls-1" d="M71.54,12.82a.78.78,0,0,0,.21,0,.66.66,0,0,0-.4-1.25.66.66,0,0,0-.43.83A.65.65,0,0,0,71.54,12.82Z"/><path class="cls-1" d="M61.75,16.57a1,1,0,0,0,.27-.06.66.66,0,0,0,.32-.87.66.66,0,0,0-.87-.33.66.66,0,0,0,.28,1.26Z"/><path class="cls-1" d="M69.05,13.65a.57.57,0,0,0,.22,0,.65.65,0,1,0-.22,0Z"/><path class="cls-1" d="M59.37,17.68a.62.62,0,0,0,.29-.07.66.66,0,1,0-.88-.3A.65.65,0,0,0,59.37,17.68Z"/><path class="cls-1" d="M9.53,81.9h.13a.66.66,0,0,0,.64-.53.65.65,0,0,0-.51-.77.66.66,0,0,0-.78.52A.67.67,0,0,0,9.53,81.9Z"/><path class="cls-1" d="M10.67,76.76a.45.45,0,0,0,.16,0A.66.66,0,1,0,10.2,76,.64.64,0,0,0,10.67,76.76Z"/><path class="cls-1" d="M11.35,74.22a.58.58,0,0,0,.19,0,.66.66,0,0,0,.63-.47.66.66,0,1,0-1.27-.37A.65.65,0,0,0,11.35,74.22Z"/><path class="cls-1" d="M10.06,79.33h.15a.65.65,0,0,0,.64-.51.66.66,0,1,0-.79.5Z"/><path class="cls-1" d="M13.84,66.72a.48.48,0,0,0,.23,0,.66.66,0,0,0,.62-.42h0a.66.66,0,1,0-.85.37Z"/><path class="cls-1" d="M14.81,64.28a.8.8,0,0,0,.26,0,.65.65,0,0,0,.6-.4h0a.63.63,0,0,0-.35-.85.65.65,0,0,0-.86.34A.68.68,0,0,0,14.81,64.28Z"/><path class="cls-1" d="M35.8,34.16a.61.61,0,0,0,.45-.19.65.65,0,1,0-.91-.94.66.66,0,0,0,0,.93A.69.69,0,0,0,35.8,34.16Z"/><path class="cls-1" d="M12.94,69.2a.52.52,0,0,0,.21,0,.65.65,0,0,0,.62-.43h0a.67.67,0,0,0-.4-.85.65.65,0,0,0-.84.41h0A.65.65,0,0,0,12.94,69.2Z"/><path class="cls-1" d="M74.06,12.05a.52.52,0,0,0,.18,0,.66.66,0,1,0-.81-.45A.66.66,0,0,0,74.06,12.05Z"/><path class="cls-1" d="M8,94.94H8a.66.66,0,1,0-.66-.69A.66.66,0,0,0,8,94.94Z"/><path class="cls-1" d="M8.14,92.32H8.2a.65.65,0,0,0,.65-.6A.64.64,0,0,0,8.26,91a.66.66,0,0,0-.12,1.31Z"/><path class="cls-1" d="M7.91,97.57h0a.66.66,0,0,0,.66-.64h0a.66.66,0,0,0-1.32,0A.67.67,0,0,0,7.91,97.57Z"/><path class="cls-1" d="M8.38,89.7h.07A.66.66,0,1,0,7.8,89h0A.66.66,0,0,0,8.38,89.7Z"/><path class="cls-1" d="M9.07,84.49h.11a.61.61,0,1,0-.11,0Z"/><path class="cls-1" d="M8.69,87.09h.09a.67.67,0,0,0,.65-.57.66.66,0,0,0-1.3-.18A.66.66,0,0,0,8.69,87.09Z"/><path class="cls-1" d="M12.11,71.71a.64.64,0,0,0,.2,0,.66.66,0,1,0-.2,0Z"/><path class="cls-1" d="M28.66,41.88a.66.66,0,1,0-.5-1.08.65.65,0,0,0,.5,1.08Z"/><path class="cls-1" d="M27,43.93a.64.64,0,0,0,.52-.25.66.66,0,1,0-1-.8.65.65,0,0,0,.12.92A.6.6,0,0,0,27,43.93Z"/><path class="cls-1" d="M25.43,46a.66.66,0,1,0-.38-.13A.62.62,0,0,0,25.43,46Z"/><path class="cls-1" d="M30.37,39.88a.67.67,0,0,0,.49-.23.65.65,0,0,0-.07-.93.64.64,0,0,0-.92.07.65.65,0,0,0,.06.92A.67.67,0,0,0,30.37,39.88Z"/><path class="cls-1" d="M32.12,37.92a.63.63,0,0,0,.48-.21.65.65,0,1,0-.48.21Z"/><path class="cls-1" d="M33.93,36a.65.65,0,1,0-.47-1.11.65.65,0,0,0,0,.92A.63.63,0,0,0,33.93,36Z"/><path class="cls-1" d="M18.15,57.11a.68.68,0,0,0,.31.08.66.66,0,1,0-.31-.08Z"/><path class="cls-1" d="M23.92,48.19a.65.65,0,0,0,.54-.29.67.67,0,0,0-.17-.92.66.66,0,0,0-.75,1.09A.64.64,0,0,0,23.92,48.19Z"/><path class="cls-1" d="M19.4,54.8a.76.76,0,0,0,.32.08.67.67,0,0,0,.58-.33.66.66,0,0,0-.25-.9.64.64,0,0,0-.89.25A.65.65,0,0,0,19.4,54.8Z"/><path class="cls-1" d="M17,59.46a.63.63,0,0,0,.29.08.66.66,0,0,0,.29-1.25A.65.65,0,1,0,17,59.46Z"/><path class="cls-1" d="M15.86,61.86a.63.63,0,0,0,.27.06.68.68,0,0,0,.6-.39.66.66,0,0,0-1.2-.55A.67.67,0,0,0,15.86,61.86Z"/><path class="cls-1" d="M22.09,50.27a.72.72,0,0,0,.37.11.68.68,0,0,0,.55-.3.66.66,0,1,0-.92.19Z"/><path class="cls-1" d="M20.71,52.52a.76.76,0,0,0,.35.09.66.66,0,0,0,.56-.32.66.66,0,0,0-1.12-.68A.67.67,0,0,0,20.71,52.52Z"/><path class="cls-1" d="M167.49,39.23a.7.7,0,0,0,.44-.17.64.64,0,1,0-.44.17Z"/><path class="cls-1" d="M142.6,19.58a.58.58,0,0,0,.31.08.67.67,0,0,0,.58-.34.66.66,0,0,0-.26-.89.65.65,0,0,0-.9.27A.64.64,0,0,0,142.6,19.58Z"/><path class="cls-1" d="M137.93,17.21a.61.61,0,0,0,.29.06.64.64,0,0,0,.59-.37.66.66,0,1,0-.88.31Z"/><path class="cls-1" d="M185.19,70.35a.64.64,0,0,0,.62.45.76.76,0,0,0,.21,0,.66.66,0,1,0-.83-.42Z"/><path class="cls-1" d="M140.28,18.37a.82.82,0,0,0,.3.07.66.66,0,0,0,.59-.36.67.67,0,0,0-.29-.89.66.66,0,0,0-.89.29A.68.68,0,0,0,140.28,18.37Z"/><path class="cls-1" d="M147.11,22.22a.74.74,0,0,0,.34.1A.64.64,0,0,0,148,22a.65.65,0,0,0-.21-.9.64.64,0,0,0-.9.2A.65.65,0,0,0,147.11,22.22Z"/><path class="cls-1" d="M149.31,23.63a.59.59,0,0,0,.36.11.62.62,0,0,0,.54-.29.65.65,0,0,0-.18-.91.65.65,0,1,0-.72,1.09Z"/><path class="cls-1" d="M151.84,25.23a.64.64,0,0,0,.54-.28.65.65,0,0,0-1.07-.75.65.65,0,0,0,.15.91A.68.68,0,0,0,151.84,25.23Z"/><path class="cls-1" d="M135.55,16.12a.63.63,0,0,0,.27.06.67.67,0,0,0,.6-.39.66.66,0,0,0-.34-.87.67.67,0,0,0-.87.34A.66.66,0,0,0,135.55,16.12Z"/><path class="cls-1" d="M125.74,12.49a.58.58,0,0,0,.19,0,.66.66,0,1,0-.19,0Z"/><path class="cls-1" d="M175.48,49.64a.71.71,0,0,0,.37-.12.64.64,0,0,0,.18-.9.65.65,0,1,0-1.09.72A.65.65,0,0,0,175.48,49.64Z"/><path class="cls-1" d="M128.23,13.29a.52.52,0,0,0,.21,0,.66.66,0,0,0,.21-1.28.64.64,0,0,0-.83.41A.65.65,0,0,0,128.23,13.29Z"/><path class="cls-1" d="M130.7,14.16h0a.59.59,0,0,0,.23,0,.64.64,0,0,0,.61-.42.65.65,0,0,0-.38-.85.67.67,0,0,0-.85.39A.65.65,0,0,0,130.7,14.16Z"/><path class="cls-1" d="M133.14,15.11a.74.74,0,0,0,.24.05.66.66,0,0,0,.62-.41.66.66,0,0,0-1.23-.49A.67.67,0,0,0,133.14,15.11Z"/><path class="cls-1" d="M158.09,30.06a.64.64,0,0,0,.49-.23.65.65,0,0,0-.07-.93h0a.66.66,0,0,0-.85,1A.62.62,0,0,0,158.09,30.06Z"/><path class="cls-1" d="M170.87,43.25a.59.59,0,0,0,.4-.14.66.66,0,0,0,.12-.92.66.66,0,0,0-1,.81A.65.65,0,0,0,170.87,43.25Z"/><path class="cls-1" d="M154,26.78a.68.68,0,0,0,.53-.26.67.67,0,0,0-.14-.92.66.66,0,0,0-.92.13.67.67,0,0,0,.13.92A.73.73,0,0,0,154,26.78Z"/><path class="cls-1" d="M165.72,37.29a.66.66,0,0,0,.45-.18.67.67,0,0,0,0-.93h0a.65.65,0,0,0-.93,0,.66.66,0,0,0,0,.93A.64.64,0,0,0,165.72,37.29Z"/><path class="cls-1" d="M7.89,100.2a.66.66,0,0,0,.66-.66.66.66,0,0,0-1.31,0A.66.66,0,0,0,7.89,100.2Z"/><path class="cls-1" d="M172.47,45.34a.6.6,0,0,0,.39-.14.66.66,0,0,0,.14-.92.66.66,0,0,0-.92-.13.65.65,0,0,0-.14.92A.68.68,0,0,0,172.47,45.34Z"/><path class="cls-1" d="M174,47.46a.57.57,0,0,0,.37-.12.65.65,0,1,0-.75-1.07.65.65,0,0,0-.16.91A.63.63,0,0,0,174,47.46Z"/><path class="cls-1" d="M169.21,41.21a.62.62,0,0,0,.42-.15.64.64,0,0,0,.08-.92.66.66,0,0,0-1,.84A.68.68,0,0,0,169.21,41.21Z"/><path class="cls-1" d="M156.05,28.39a.67.67,0,0,0,.52-.25.66.66,0,1,0-.93.11A.64.64,0,0,0,156.05,28.39Z"/><path class="cls-1" d="M123.23,11.77l.17,0a.67.67,0,0,0,.64-.49.66.66,0,0,0-.47-.8.65.65,0,0,0-.8.46A.66.66,0,0,0,123.23,11.77Z"/><path class="cls-1" d="M162,33.57a.68.68,0,0,0,.48-.21.66.66,0,0,0,0-.93.65.65,0,0,0-.93,0,.64.64,0,0,0,0,.92A.59.59,0,0,0,162,33.57Z"/><path class="cls-1" d="M163.88,35.4a.64.64,0,0,0,.47-.19.66.66,0,1,0-.93,0A.62.62,0,0,0,163.88,35.4Z"/><path class="cls-1" d="M160.07,31.78a.64.64,0,0,0,.49-.22.66.66,0,1,0-1-.87.65.65,0,0,0,0,.92A.63.63,0,0,0,160.07,31.78Z"/><path class="cls-1" d="M144.87,20.87a.68.68,0,0,0,.33.09.66.66,0,1,0-.33-.09Z"/><path class="cls-1" d="M97.41,8.57a.67.67,0,0,0,.65-.67.66.66,0,1,0-.65.67Z"/><path class="cls-1" d="M89.52,9.06h.08a.66.66,0,1,0-.73-.59A.67.67,0,0,0,89.52,9.06Z"/><path class="cls-1" d="M86.92,9.37H87a.65.65,0,0,0,.56-.73.66.66,0,0,0-.74-.57.66.66,0,0,0,.09,1.31Z"/><path class="cls-1" d="M94.77,8.65h0A.65.65,0,0,0,95.43,8,.66.66,0,0,0,94.11,8,.66.66,0,0,0,94.77,8.65Z"/><path class="cls-1" d="M92.15,8.82h0a.66.66,0,1,0-.1-1.32.66.66,0,0,0,.05,1.32Z"/><path class="cls-1" d="M84.32,9.76h.1a.64.64,0,1,0-.1,0Z"/><path class="cls-1" d="M181.31,60.69a.66.66,0,0,0,.59.37.71.71,0,0,0,.28-.06.66.66,0,1,0-.87-.31Z"/><path class="cls-1" d="M183.38,65.45a.66.66,0,0,0,.62.42.74.74,0,0,0,.24-.05.66.66,0,0,0,.36-.85.65.65,0,0,0-.85-.37A.66.66,0,0,0,183.38,65.45Z"/><path class="cls-1" d="M76.6,11.37l.16,0a.66.66,0,1,0-.16,0Z"/><path class="cls-1" d="M79.16,10.76h.14a.67.67,0,0,0,.5-.79.66.66,0,1,0-1.28.29A.64.64,0,0,0,79.16,10.76Z"/><path class="cls-1" d="M182.38,63.05a.65.65,0,0,0,.6.4.86.86,0,0,0,.27-.05.67.67,0,0,0,.33-.87.65.65,0,0,0-1.2.52Z"/><path class="cls-1" d="M81.73,10.22h.13a.67.67,0,0,0,.52-.77.66.66,0,0,0-1.3.25A.67.67,0,0,0,81.73,10.22Z"/><path class="cls-1" d="M105.24,8.75h0a.66.66,0,1,0-.65-.7A.66.66,0,0,0,105.28,8.75Z"/><path class="cls-1" d="M177.68,53.77a.66.66,0,0,0,.57.32.67.67,0,0,0,.33-.08.66.66,0,0,0,.23-.9.64.64,0,0,0-.89-.24.67.67,0,0,0-.24.9Z"/><path class="cls-1" d="M115.59,10h.12a.66.66,0,0,0,.12-1.31.65.65,0,0,0-.76.53A.66.66,0,0,0,115.59,10Z"/><path class="cls-1" d="M113,9.59h.1a.66.66,0,0,0,.65-.56.66.66,0,1,0-1.3-.19A.65.65,0,0,0,113,9.59Z"/><path class="cls-1" d="M179,56a.66.66,0,0,0,.58.34.72.72,0,0,0,.32-.08.66.66,0,0,0,.26-.89.65.65,0,0,0-.89-.26A.66.66,0,0,0,179,56Z"/><path class="cls-1" d="M120.7,11.11a.44.44,0,0,0,.16,0,.66.66,0,0,0,.15-1.3.66.66,0,0,0-.31,1.28Z"/><path class="cls-1" d="M100,8.55h0a.66.66,0,1,0,0-1.31.64.64,0,0,0-.66.65A.66.66,0,0,0,100,8.55Z"/><path class="cls-1" d="M118.16,10.54h.14a.66.66,0,0,0,.64-.53.66.66,0,0,0-1.29-.27A.66.66,0,0,0,118.16,10.54Z"/><path class="cls-1" d="M102.63,8.62h0a.66.66,0,0,0,0-1.32.66.66,0,0,0-.68.63A.67.67,0,0,0,102.63,8.62Z"/><path class="cls-1" d="M180.16,58.35a.66.66,0,0,0,.59.36.82.82,0,0,0,.3-.07.66.66,0,1,0-.89-.29Z"/><path class="cls-1" d="M110.44,9.24h.08a.65.65,0,0,0,.65-.57.67.67,0,0,0-.57-.74.65.65,0,0,0-.73.57A.66.66,0,0,0,110.44,9.24Z"/><path class="cls-1" d="M107.84,9h.07a.63.63,0,1,0-.07,0Z"/><path class="cls-1" d="M176.34,51.53a.65.65,0,0,0,.56.31.59.59,0,0,0,.34-.1.65.65,0,0,0,.21-.9h0a.66.66,0,0,0-.91-.21.65.65,0,0,0-.21.9Z"/><path class="cls-1" d="M184.32,67.89a.66.66,0,0,0,.62.43.62.62,0,0,0,.23,0,.66.66,0,1,0-.85-.39Z"/><path class="cls-1" d="M140.81,179.79a.66.66,0,0,0-.29.89.68.68,0,0,0,.59.36.67.67,0,0,0,.3-.08.66.66,0,0,0-.6-1.17Z"/><path class="cls-1" d="M138.47,181a.65.65,0,0,0-.3.87.65.65,0,1,0,.3-.87Z"/><path class="cls-1" d="M133.73,183.07a.66.66,0,0,0,.25,1.27.85.85,0,0,0,.25-.05.65.65,0,0,0,.35-.85A.66.66,0,0,0,133.73,183.07Z"/><path class="cls-1" d="M136.11,182.05a.66.66,0,0,0-.33.87.65.65,0,0,0,.6.39.63.63,0,0,0,.27-.06.66.66,0,0,0-.54-1.2Z"/><path class="cls-1" d="M126.36,185.74a.65.65,0,0,0-.43.82.66.66,0,0,0,.63.47.71.71,0,0,0,.2,0,.64.64,0,0,0,.42-.82A.65.65,0,0,0,126.36,185.74Z"/><path class="cls-1" d="M190.45,95.27a.66.66,0,1,0,0,1.31h0a.65.65,0,0,0,.63-.67h0A.66.66,0,0,0,190.45,95.27Z"/><path class="cls-1" d="M131.29,184a.66.66,0,0,0,.24,1.28.46.46,0,0,0,.23-.05.64.64,0,0,0,.38-.84A.66.66,0,0,0,131.29,184Z"/><path class="cls-1" d="M158.07,168.18a.65.65,0,0,0-.08.92.67.67,0,0,0,.5.23.66.66,0,0,0,.43-.16.65.65,0,0,0-.85-1Z"/><path class="cls-1" d="M151.9,173a.66.66,0,0,0,.39,1.2.66.66,0,0,0,.54-1A.68.68,0,0,0,151.9,173Z"/><path class="cls-1" d="M154,171.45a.66.66,0,0,0-.13.92.66.66,0,0,0,.52.26.61.61,0,0,0,.4-.14h0a.65.65,0,0,0,.13-.92A.66.66,0,0,0,154,171.45Z"/><path class="cls-1" d="M143.1,178.56a.68.68,0,0,0-.26.9.67.67,0,0,0,.58.33.61.61,0,0,0,.32-.08.66.66,0,1,0-.64-1.15Z"/><path class="cls-1" d="M156.06,169.85a.65.65,0,0,0,.41,1.16.63.63,0,0,0,.41-.15.64.64,0,0,0,.1-.92A.65.65,0,0,0,156.06,169.85Z"/><path class="cls-1" d="M149.77,174.48a.67.67,0,0,0-.19.91.68.68,0,0,0,.56.29.61.61,0,0,0,.36-.11.66.66,0,0,0-.73-1.09Z"/><path class="cls-1" d="M145.36,177.27a.65.65,0,0,0-.23.9.67.67,0,0,0,.57.32.65.65,0,0,0,.56-1A.65.65,0,0,0,145.36,177.27Z"/><path class="cls-1" d="M147.59,175.91a.64.64,0,0,0-.21.9.66.66,0,0,0,.55.31.78.78,0,0,0,.36-.1.67.67,0,0,0,.2-.91A.64.64,0,0,0,147.59,175.91Z"/><path class="cls-1" d="M128.84,184.93h0a.66.66,0,0,0,.22,1.28.56.56,0,0,0,.21,0,.65.65,0,1,0-.43-1.23Z"/><path class="cls-1" d="M108.49,189.41a.65.65,0,0,0-.58.72.66.66,0,0,0,.65.59h.07a.66.66,0,0,0,.59-.71A.67.67,0,0,0,108.49,189.41Z"/><path class="cls-1" d="M105.9,189.64a.65.65,0,0,0,0,1.3h0a.65.65,0,1,0-.09-1.3Z"/><path class="cls-1" d="M189.21,88.14h0a.67.67,0,0,0,.66.58h.08a.66.66,0,1,0-.73-.58Z"/><path class="cls-1" d="M188.85,85.56a.66.66,0,0,0,.66.56h.09a.66.66,0,0,0,.56-.75.68.68,0,0,0-.75-.55A.66.66,0,0,0,188.85,85.56Z"/><path class="cls-1" d="M111.09,189.1a.66.66,0,0,0,.08,1.31h.09a.66.66,0,0,0,.57-.74A.68.68,0,0,0,111.09,189.1Z"/><path class="cls-1" d="M103.29,189.79h0a.66.66,0,0,0,0,1.31h0a.67.67,0,0,0,.64-.69A.66.66,0,0,0,103.29,189.79Z"/><path class="cls-1" d="M100.68,189.87a.64.64,0,0,0-.64.66.65.65,0,0,0,.66.65h0a.66.66,0,1,0,0-1.31Z"/><path class="cls-1" d="M113.67,188.73a.66.66,0,0,0,.1,1.31h.11a.66.66,0,0,0-.21-1.3Z"/><path class="cls-1" d="M190.3,92.65a.64.64,0,0,0-.61.69.66.66,0,0,0,.65.62h0a.67.67,0,0,0,.61-.7A.65.65,0,0,0,190.3,92.65Z"/><path class="cls-1" d="M123.86,186.49h0a.66.66,0,0,0-.46.8.67.67,0,0,0,.64.48.55.55,0,0,0,.18,0,.66.66,0,0,0-.36-1.26Z"/><path class="cls-1" d="M118.79,187.76a.64.64,0,0,0-.49.78.66.66,0,0,0,.64.52l.14,0a.66.66,0,1,0-.29-1.28Z"/><path class="cls-1" d="M121.34,187.16a.64.64,0,0,0-.48.79.65.65,0,0,0,.64.5.47.47,0,0,0,.16,0h0a.65.65,0,0,0-.32-1.27Z"/><path class="cls-1" d="M116.24,188.28a.65.65,0,0,0-.52.77.64.64,0,0,0,.64.53h.13a.66.66,0,0,0-.25-1.29Z"/><path class="cls-1" d="M189.49,90.74a.65.65,0,0,0,.65.6h.06a.66.66,0,1,0-.71-.6Z"/><path class="cls-1" d="M187.67,122a.64.64,0,0,0-.8.47.66.66,0,0,0,.47.8l.17,0a.65.65,0,0,0,.63-.49A.64.64,0,0,0,187.67,122Z"/><path class="cls-1" d="M187,124.51a.66.66,0,0,0-.37,1.27.58.58,0,0,0,.19,0,.66.66,0,0,0,.63-.46A.68.68,0,0,0,187,124.51Z"/><path class="cls-1" d="M98.07,189.87a.66.66,0,1,0,0,1.31h0a.66.66,0,1,0,0-1.31Z"/><path class="cls-1" d="M188.83,116.85a.65.65,0,0,0-.77.51h0a.66.66,0,0,0,.51.77h.13a.66.66,0,0,0,.13-1.3Z"/><path class="cls-1" d="M188.29,119.42a.66.66,0,0,0-.79.49.67.67,0,0,0,.49.8h.15a.65.65,0,0,0,.64-.51A.66.66,0,0,0,188.29,119.42Z"/><path class="cls-1" d="M184.47,132a.67.67,0,0,0-.86.37.66.66,0,0,0,.38.85.69.69,0,0,0,.24.05.66.66,0,0,0,.61-.42h0A.65.65,0,0,0,184.47,132Z"/><path class="cls-1" d="M185.38,129.54a.65.65,0,1,0-.44,1.23.54.54,0,0,0,.22,0,.67.67,0,0,0,.62-.43A.65.65,0,0,0,185.38,129.54Z"/><path class="cls-1" d="M183.49,134.45a.67.67,0,0,0-.87.35.65.65,0,0,0,.35.86.62.62,0,0,0,.26.06.66.66,0,0,0,.26-1.27Z"/><path class="cls-1" d="M186.22,127a.66.66,0,1,0-.41,1.25l.2,0a.66.66,0,0,0,.21-1.28Z"/><path class="cls-1" d="M190.51,101.19a.64.64,0,0,0-.67.63.65.65,0,0,0,.64.68h0a.67.67,0,0,0,.66-.64h0A.65.65,0,0,0,190.51,101.19Z"/><path class="cls-1" d="M191.19,98.55a.65.65,0,0,0-.67-.65.66.66,0,0,0-.65.66.64.64,0,0,0,.1.33.6.6,0,0,0-.1.32.66.66,0,0,0,1.32,0,.59.59,0,0,0-.09-.32A.67.67,0,0,0,191.19,98.55Z"/><path class="cls-1" d="M190.42,103.81a.66.66,0,0,0-.69.62.67.67,0,0,0,.62.7h0a.66.66,0,0,0,.65-.62A.65.65,0,0,0,190.42,103.81Z"/><path class="cls-1" d="M160,166.45a.66.66,0,0,0,.44,1.15.7.7,0,0,0,.45-.17.66.66,0,1,0-.89-1Z"/><path class="cls-1" d="M190.25,106.44a.65.65,0,0,0-.71.59.67.67,0,0,0,.6.72h.06a.66.66,0,0,0,.05-1.31Z"/><path class="cls-1" d="M189.69,111.67a.64.64,0,0,0-.74.55h0a.64.64,0,0,0,.56.74h.09a.65.65,0,0,0,.09-1.3Z"/><path class="cls-1" d="M189.3,114.26a.66.66,0,1,0-.22,1.3h.11a.66.66,0,0,0,.11-1.31Z"/><path class="cls-1" d="M7.94,102.82H8a.65.65,0,0,0,.64-.67.66.66,0,0,0-1.32,0A.65.65,0,0,0,7.94,102.82Z"/><path class="cls-1" d="M169.05,157a.64.64,0,0,0,.08.92.7.7,0,0,0,.42.15.65.65,0,1,0-.5-1.07Z"/><path class="cls-1" d="M167.35,159a.66.66,0,0,0,.06.93.64.64,0,0,0,.43.16.65.65,0,0,0,.5-.22.66.66,0,0,0-1-.87Z"/><path class="cls-1" d="M173.18,152.78a.64.64,0,0,0-.91.14h0a.67.67,0,0,0,.14.92.7.7,0,0,0,.39.13.67.67,0,0,0,.54-.27h0A.65.65,0,0,0,173.18,152.78Z"/><path class="cls-1" d="M170.68,155a.65.65,0,0,0,.12.92.61.61,0,0,0,.4.14.66.66,0,0,0,.41-1.17A.66.66,0,0,0,170.68,155Z"/><path class="cls-1" d="M182.43,136.87a.65.65,0,0,0-.87.33h0a.65.65,0,0,0,.33.87.58.58,0,0,0,.26.06.66.66,0,0,0,.28-1.25Z"/><path class="cls-1" d="M163.79,162.84a.66.66,0,0,0,0,.93.64.64,0,0,0,.47.19.62.62,0,0,0,.46-.2.65.65,0,0,0,0-.92A.67.67,0,0,0,163.79,162.84Z"/><path class="cls-1" d="M165.6,161a.66.66,0,0,0,.48,1.1.64.64,0,0,0,.48-.21h0a.66.66,0,0,0,0-.93A.65.65,0,0,0,165.6,161Z"/><path class="cls-1" d="M161.94,164.68a.65.65,0,0,0,0,.92.62.62,0,0,0,.47.21.6.6,0,0,0,.45-.19.64.64,0,0,0,0-.92A.63.63,0,0,0,161.94,164.68Z"/><path class="cls-1" d="M180.12,141.61a.65.65,0,1,0-.62,1.15.58.58,0,0,0,.31.08.65.65,0,0,0,.31-1.23Z"/><path class="cls-1" d="M181.31,139.25a.66.66,0,0,0-.58,1.18.59.59,0,0,0,.29.07.67.67,0,0,0,.59-.37A.66.66,0,0,0,181.31,139.25Z"/><path class="cls-1" d="M178.86,143.92a.66.66,0,0,0-.65,1.14.61.61,0,0,0,.32.08.63.63,0,0,0,.57-.32A.65.65,0,0,0,178.86,143.92Z"/><path class="cls-1" d="M173.79,150.79h0a.66.66,0,0,0,.17.92.7.7,0,0,0,.37.11.63.63,0,0,0,.54-.28.65.65,0,0,0-.16-.91A.65.65,0,0,0,173.79,150.79Z"/><path class="cls-1" d="M176.15,148.43a.66.66,0,0,0-.91.19.65.65,0,0,0,.55,1,.64.64,0,0,0,.55-.3A.66.66,0,0,0,176.15,148.43Z"/><path class="cls-1" d="M177.54,146.2a.65.65,0,1,0-.69,1.11.63.63,0,0,0,.34.1.68.68,0,0,0,.57-.31A.65.65,0,0,0,177.54,146.2Z"/><path class="cls-1" d="M190,109.06a.65.65,0,0,0-.73.57.66.66,0,0,0,.58.73h.08a.65.65,0,0,0,.07-1.3Z"/><path class="cls-1" d="M18.12,139.79a.66.66,0,0,0-1.18.59.66.66,0,0,0,.88.29A.67.67,0,0,0,18.12,139.79Z"/><path class="cls-1" d="M23.85,150.81a.66.66,0,0,0,.38,1.2.68.68,0,0,0,.38-.12.67.67,0,0,0,.16-.91A.65.65,0,0,0,23.85,150.81Z"/><path class="cls-1" d="M25.37,153a.65.65,0,0,0-.14.92.67.67,0,0,0,.53.26.66.66,0,1,0-.39-1.18Z"/><path class="cls-1" d="M27,155.05a.66.66,0,0,0-.11.93.66.66,0,0,0,.51.25.7.7,0,0,0,.41-.14.67.67,0,0,0,.11-.93A.66.66,0,0,0,27,155.05Z"/><path class="cls-1" d="M19.31,142.1a.65.65,0,1,0-.57,1,.71.71,0,0,0,.31-.08A.66.66,0,0,0,19.31,142.1Z"/><path class="cls-1" d="M21,146.39a.67.67,0,0,0-.22.91.69.69,0,0,0,.56.32.67.67,0,0,0,.34-.1.66.66,0,0,0-.68-1.13Z"/><path class="cls-1" d="M19.68,144.13a.67.67,0,0,0-.24.9.65.65,0,0,0,.57.33.68.68,0,0,0,.33-.09.65.65,0,0,0,.24-.89A.66.66,0,0,0,19.68,144.13Z"/><path class="cls-1" d="M22.4,148.62a.66.66,0,0,0-.19.92.65.65,0,0,0,.55.29.65.65,0,0,0,.55-1A.67.67,0,0,0,22.4,148.62Z"/><path class="cls-1" d="M33.84,163a.65.65,0,0,0,0,.93h0a.65.65,0,0,0,.46.2.67.67,0,0,0,.47-1.12A.66.66,0,0,0,33.84,163Z"/><path class="cls-1" d="M36.63,164.82a.65.65,0,1,0-.91.94h0a.7.7,0,0,0,.46.18.64.64,0,0,0,.48-.21.66.66,0,0,0,0-.92Z"/><path class="cls-1" d="M37.62,166.64a.65.65,0,0,0,.05.93.67.67,0,0,0,.43.17.68.68,0,0,0,.5-.22.66.66,0,1,0-1-.88Z"/><path class="cls-1" d="M30.28,159.12a.64.64,0,0,0-.06.92.65.65,0,0,0,.49.23.67.67,0,0,0,.44-.17.66.66,0,0,0,.06-.93A.65.65,0,0,0,30.28,159.12Z"/><path class="cls-1" d="M28.58,157.11a.67.67,0,0,0-.08.93.66.66,0,0,0,.5.23.68.68,0,0,0,.43-.15.66.66,0,0,0,.08-.92A.65.65,0,0,0,28.58,157.11Z"/><path class="cls-1" d="M32,161.08a.64.64,0,0,0,0,.92.66.66,0,0,0,.48.21.68.68,0,0,0,.45-.17.65.65,0,0,0,0-.93A.63.63,0,0,0,32,161.08Z"/><path class="cls-1" d="M13.13,127.76a.65.65,0,1,0-.62.86.51.51,0,0,0,.21,0A.65.65,0,0,0,13.13,127.76Z"/><path class="cls-1" d="M9.41,115.88a.66.66,0,0,0-.23-1.29.65.65,0,0,0,.11,1.3Z"/><path class="cls-1" d="M9.92,118.46a.66.66,0,0,0,.51-.78.64.64,0,0,0-.77-.5.65.65,0,0,0,.13,1.29Z"/><path class="cls-1" d="M10.51,121a.65.65,0,1,0-.15,0A.41.41,0,0,0,10.51,121Z"/><path class="cls-1" d="M9,113.29a.65.65,0,0,0,.55-.75.66.66,0,1,0-.65.76Z"/><path class="cls-1" d="M17,137.45a.66.66,0,0,0-.87-.33.67.67,0,0,0-.32.88.66.66,0,0,0,1.19-.55Z"/><path class="cls-1" d="M8.31,108.07a.65.65,0,0,0,.6-.71.66.66,0,1,0-1.31.12.67.67,0,0,0,.66.6Z"/><path class="cls-1" d="M8.6,110.69a.7.7,0,1,0-.08,0Z"/><path class="cls-1" d="M8.06,105.45h0a.66.66,0,0,0,.62-.69.66.66,0,1,0-.66.69Z"/><path class="cls-1" d="M14.92,132.67a.66.66,0,1,0-.61.9.64.64,0,0,0,.24,0A.66.66,0,0,0,14.92,132.67Z"/><path class="cls-1" d="M15.91,135.07a.66.66,0,0,0-.86-.35.67.67,0,0,0-.34.87.66.66,0,0,0,.6.4.58.58,0,0,0,.26-.06A.64.64,0,0,0,15.91,135.07Z"/><path class="cls-1" d="M11.63,122.76a.65.65,0,1,0-.63.83l.17,0A.66.66,0,0,0,11.63,122.76Z"/><path class="cls-1" d="M14,130.23a.65.65,0,1,0-1.23.44.66.66,0,0,0,.62.44.85.85,0,0,0,.22,0A.66.66,0,0,0,14,130.23Z"/><path class="cls-1" d="M12.35,125.27a.66.66,0,1,0-.63.85.58.58,0,0,0,.19,0A.65.65,0,0,0,12.35,125.27Z"/><path class="cls-1" d="M39.58,168.39a.66.66,0,0,0,.51,1.08.66.66,0,0,0,.42-1.16A.66.66,0,0,0,39.58,168.39Z"/><path class="cls-1" d="M187.35,77.88a.65.65,0,0,0,.64.5l.15,0a.65.65,0,0,0,.49-.79.66.66,0,1,0-1.28.31Z"/><path class="cls-1" d="M72.37,185.83a.67.67,0,0,0-.82.44.65.65,0,0,0,.43.82.46.46,0,0,0,.2,0,.66.66,0,0,0,.19-1.29Z"/><path class="cls-1" d="M74.88,186.57a.66.66,0,0,0-.35,1.27l.17,0a.66.66,0,0,0,.18-1.3Z"/><path class="cls-1" d="M77.4,187.24a.65.65,0,0,0-.31,1.27l.16,0a.65.65,0,0,0,.63-.5A.64.64,0,0,0,77.4,187.24Z"/><path class="cls-1" d="M69.88,185h0a.66.66,0,1,0-.43,1.24.49.49,0,0,0,.21,0,.66.66,0,0,0,.21-1.28Z"/><path class="cls-1" d="M65,183.19a.64.64,0,0,0-.85.36.66.66,0,0,0,.35.86.77.77,0,0,0,.25,0,.65.65,0,0,0,.61-.4A.66.66,0,0,0,65,183.19Z"/><path class="cls-1" d="M186.7,75.35a.66.66,0,0,0,.64.48.52.52,0,0,0,.17,0A.66.66,0,0,0,188,75a.66.66,0,1,0-1.27.34Z"/><path class="cls-1" d="M67.42,184.15a.65.65,0,0,0-.85.38.67.67,0,0,0,.38.85,1,1,0,0,0,.24,0,.65.65,0,0,0,.61-.43A.64.64,0,0,0,67.42,184.15Z"/><path class="cls-1" d="M80,187.83a.66.66,0,1,0-.28,1.28h.14a.66.66,0,0,0,.64-.52A.65.65,0,0,0,80,187.83Z"/><path class="cls-1" d="M187.93,80.42a.64.64,0,0,0,.64.52h.13a.65.65,0,0,0,.51-.78h0a.65.65,0,1,0-1.28.27Z"/><path class="cls-1" d="M95.46,189.8a.66.66,0,0,0-.68.63.65.65,0,0,0,.63.68h0a.64.64,0,0,0,.65-.63A.65.65,0,0,0,95.46,189.8Z"/><path class="cls-1" d="M87.66,189.15a.64.64,0,0,0-.73.56.66.66,0,0,0,.56.74h.09a.66.66,0,0,0,.65-.58A.64.64,0,0,0,87.66,189.15Z"/><path class="cls-1" d="M85.08,188.78a.66.66,0,1,0-.2,1.3H85a.66.66,0,0,0,.11-1.31Z"/><path class="cls-1" d="M92.86,189.65a.68.68,0,0,0-.71.62.67.67,0,0,0,.62.7h0a.66.66,0,0,0,.66-.61A.67.67,0,0,0,92.86,189.65Z"/><path class="cls-1" d="M82.5,188.34a.65.65,0,0,0-.76.53.66.66,0,0,0,.53.77h.11a.66.66,0,0,0,.12-1.3Z"/><path class="cls-1" d="M188.43,83a.66.66,0,0,0,.64.55l.12,0a.66.66,0,0,0-.23-1.29A.65.65,0,0,0,188.43,83Z"/><path class="cls-1" d="M48.85,174.61h0a.66.66,0,1,0-.74,1.09.63.63,0,0,0,.37.12.67.67,0,0,0,.37-1.21Z"/><path class="cls-1" d="M90.25,189.44a.65.65,0,0,0-.71.59.66.66,0,0,0,.59.72h.07a.67.67,0,0,0,.65-.6A.65.65,0,0,0,90.25,189.44Z"/><path class="cls-1" d="M45.78,173.28a.67.67,0,0,0,.15.92.68.68,0,0,0,.38.12.66.66,0,0,0,.54-.28.66.66,0,0,0-1.07-.76Z"/><path class="cls-1" d="M43.67,171.71a.65.65,0,0,0,.13.92.63.63,0,0,0,.39.13.67.67,0,0,0,.53-.26.66.66,0,1,0-1-.79Z"/><path class="cls-1" d="M41.6,170.08a.65.65,0,0,0,.11.92.68.68,0,0,0,.4.15.66.66,0,1,0-.51-1.07Z"/><path class="cls-1" d="M51,176a.66.66,0,1,0-.7,1.11.55.55,0,0,0,.35.1A.65.65,0,0,0,51,176Z"/><path class="cls-1" d="M57.85,179.91a.66.66,0,1,0-.3,1.24.67.67,0,0,0,.59-.35A.67.67,0,0,0,57.85,179.91Z"/><path class="cls-1" d="M62.57,182.17a.64.64,0,0,0-.86.33.66.66,0,0,0,.33.87.62.62,0,0,0,.27,0,.63.63,0,0,0,.59-.39A.64.64,0,0,0,62.57,182.17Z"/><path class="cls-1" d="M60.19,181.08a.65.65,0,0,0-.87.3.66.66,0,0,0,.31.88.67.67,0,0,0,.28.06.63.63,0,0,0,.59-.37A.64.64,0,0,0,60.19,181.08Z"/><path class="cls-1" d="M53.27,177.39h0a.66.66,0,0,0-.9.23.66.66,0,0,0,.23.9.7.7,0,0,0,.34.1.66.66,0,0,0,.33-1.23Z"/><path class="cls-1" d="M55.54,178.68a.66.66,0,0,0-.89.26.67.67,0,0,0,.26.9.71.71,0,0,0,.31.08.68.68,0,0,0,.58-.34A.67.67,0,0,0,55.54,178.68Z"/><path class="cls-1" d="M32,76.7a2.59,2.59,0,0,0-1.72-3.48,2.31,2.31,0,0,0-2.68.73,2.15,2.15,0,0,0-1.55-1.71,2.45,2.45,0,0,0-3.29,1.63l-1,3.09L31,80Zm-5.22-1.44-.65,2-3.12-1,.64-2a1.55,1.55,0,0,1,2.09-1A1.52,1.52,0,0,1,26.82,75.26Zm.27,2.28.69-2.11A1.67,1.67,0,0,1,30,74.26a1.54,1.54,0,0,1,1.12,2.12l-.73,2.23Z"/><path class="cls-1" d="M29.22,70.14c2.7,1.3,5.2.67,6.29-1.58s0-4.63-2.66-5.93-5.21-.66-6.29,1.59S26.52,68.84,29.22,70.14ZM27.5,64.68c.81-1.67,2.73-2.1,4.87-1.07s3,2.8,2.18,4.47-2.73,2.09-4.85,1.07S26.7,66.33,27.5,64.68Z"/><path class="cls-1" d="M32.44,59.1c1.5,1,2.8,0,3.77-1.1.74-.8,1.7-1.61,2.77-.91a1.87,1.87,0,0,1,.31,2.76,2,2,0,0,1-2.7.89l-.59.89c1.7,1,3.29.06,4.14-1.23,1-1.61.8-3.31-.56-4.21-1.56-1-3-.11-4,1.13-.67.75-1.5,1.53-2.58.81a1.67,1.67,0,0,1-.32-2.52,1.78,1.78,0,0,1,2.44-.84l.57-.85c-1.6-1-3.08-.09-3.88,1.12A2.78,2.78,0,0,0,32.44,59.1Z"/><polygon class="cls-1" points="39.15 45.55 35.29 50.21 36.09 50.87 37.67 48.95 44.32 54.46 45 53.64 38.35 48.14 39.94 46.21 39.15 45.55"/><path class="cls-1" d="M46.83,51.38l.8-.78-1-2.33,2.93-2.87,2.3,1.1.81-.79-.11-.1-9.45-4.27-.35.35,4,9.58Zm-2.58-8.46,4.32,2-2.4,2.35Z"/><path class="cls-1" d="M48.44,36.68l5.79,7.73,2.35-1.75c1.92-1.44,2-3.95.3-6.28s-4.17-2.9-6.1-1.46ZM56,37c1.36,1.82,1.33,3.74-.09,4.8l-1.44,1.08L50,36.87l1.46-1.09C52.81,34.73,54.65,35.23,56,37Z"/><path class="cls-1" d="M62,33.77c1-.37,2.25-.65,2.88.46a1.85,1.85,0,0,1-1,2.59,2,2,0,0,1-2.8-.43l-.92.52c1,1.7,2.89,1.55,4.23.78,1.67-.94,2.22-2.57,1.42-4-.92-1.62-2.59-1.45-4.12-.84-.93.36-2,.68-2.67-.45A1.67,1.67,0,0,1,59.88,30a1.78,1.78,0,0,1,2.56.37l.88-.51c-1-1.6-2.7-1.48-4-.76a2.78,2.78,0,0,0-1.24,3.93C59,34.61,60.6,34.35,62,33.77Z"/><path class="cls-1" d="M70.28,34.53l-1.37-3.27,1.86-.78,3.43,2.41,1.06-.44-.07-.16-3.52-2.4a2.78,2.78,0,0,0,.72-3.37,2.81,2.81,0,0,0-3.8-1.78l-3,1.28L69.27,35Zm-3.36-8,2-.86a1.82,1.82,0,0,1,2.43,1.23,1.85,1.85,0,0,1-.82,2.6l-2,.86Z"/><path class="cls-1" d="M79,20.46a.59.59,0,0,0,.44-.76.63.63,0,1,0-1.21.33A.59.59,0,0,0,79,20.46Z"/><path class="cls-1" d="M76.52,32l1.06-.29.23-2.54,4-1.08,1.48,2.07,1.08-.3,0-.15-6.2-8.3-.48.13L76.48,31.84Zm1.83-8.64,2.8,3.87-3.24.88Z"/><path class="cls-1" d="M76.33,21.2a.62.62,0,0,0,.45-.77.63.63,0,1,0-1.21.33A.59.59,0,0,0,76.33,21.2Z"/><polygon class="cls-1" points="85.83 20.89 87.22 29.4 88.26 29.23 86.88 20.72 89.34 20.32 89.18 19.3 83.21 20.27 83.38 21.29 85.83 20.89"/><polygon class="cls-1" points="93.96 19.93 94.47 28.55 95.53 28.48 95.03 19.87 97.52 19.72 97.46 18.69 91.42 19.04 91.48 20.08 93.96 19.93"/><path class="cls-1" d="M103,24c1.07.23,2.25.65,2.18,1.94,0,1.07-.94,1.72-2.22,1.65a2,2,0,0,1-2.13-1.88l-1.06,0c-.05,2,1.61,2.86,3.15,2.94,1.92.1,3.26-1,3.34-2.61.09-1.86-1.4-2.61-3-2.92-1-.2-2.07-.52-2-1.81,0-.95.76-1.62,2-1.56.91.05,1.94.46,2,1.69l1,0c0-1.88-1.48-2.7-2.93-2.77a2.77,2.77,0,0,0-3.16,2.64C100,23.13,101.51,23.77,103,24Z"/><polygon class="cls-1" points="114.76 21.23 114.92 20.22 110.09 19.43 108.54 28.97 109.61 29.14 110.27 25.13 113.71 25.69 113.88 24.68 110.43 24.12 111 20.62 114.76 21.23"/><path class="cls-1" d="M120.52,19.87a.63.63,0,0,0,1.2.36.61.61,0,0,0-.41-.79A.62.62,0,0,0,120.52,19.87Z"/><path class="cls-1" d="M119.15,31.38c2.41.71,4.57-.71,5.41-3.58s-.2-5.24-2.6-5.95-4.55.72-5.4,3.59S116.75,30.68,119.15,31.38Zm-1.53-5.62c.67-2.28,2.29-3.42,4-2.9s2.52,2.35,1.85,4.63-2.28,3.4-4.06,2.88S117,28,117.62,25.76Z"/><path class="cls-1" d="M123.06,20.62a.62.62,0,0,0,.43.78.63.63,0,0,0,.36-1.21A.62.62,0,0,0,123.06,20.62Z"/><path class="cls-1" d="M126.46,33.8l1.45-3.24,1.84.83.59,4.15,1,.47.06-.16-.65-4.21a2.78,2.78,0,0,0,2.94-1.78,2.8,2.8,0,0,0-1.3-4l-3-1.36-3.95,8.84ZM130,25.9l2,.9a1.84,1.84,0,0,1,.77,2.62,1.87,1.87,0,0,1-2.47,1.18l-2-.91Z"/><polygon class="cls-1" points="141.93 32.13 142.44 31.26 138.28 28.79 133.35 37.1 137.61 39.63 138.15 38.72 134.83 36.75 136.57 33.8 139.67 35.64 140.19 34.77 137.09 32.93 138.7 30.21 141.93 32.13"/><polygon class="cls-1" points="145.71 33.27 139.74 41.03 140.59 41.69 143.43 38 144.97 35.86 144.62 44.96 144.91 45.18 150.89 37.4 150.04 36.74 147.28 40.33 145.66 42.57 146.01 33.51 145.71 33.27"/><polygon class="cls-1" points="148.35 46.94 147.35 45.98 146.71 46.65 149.51 49.32 150.15 48.65 149.15 47.7 154.55 42.04 155.48 42.92 156.11 42.27 153.46 39.73 152.83 40.39 153.75 41.27 148.35 46.94"/><polygon class="cls-1" points="158.65 44.65 151.17 50.98 151.87 51.8 155.42 48.79 157.38 47.03 155.12 55.85 155.35 56.13 162.84 49.79 162.15 48.96 158.69 51.89 156.63 53.74 158.9 44.95 158.65 44.65"/><path class="cls-1" d="M161,55.37c-2.53,1.6-3.33,4.06-2,6.14s3.93,2.3,6.52.54l-2.05-3.24-.83.53,1.51,2.37c-2,1-3.38.58-4.24-.77-1-1.53-.3-3.38,1.69-4.64s3.94-1.08,4.91.45a2.43,2.43,0,0,1-.12,3.17l.56.88a3.46,3.46,0,0,0,.44-4.61C166.08,54.1,163.52,53.78,161,55.37Z"/><polygon class="cls-1" points="172.18 67.56 173.09 67.13 171.02 62.75 162.28 66.89 164.4 71.37 165.37 70.91 163.71 67.42 166.81 65.95 168.35 69.21 169.26 68.78 167.72 65.52 170.57 64.17 172.18 67.56"/><polygon class="cls-1" points="165.72 74.73 170.14 73.26 172.62 72.35 167.23 79.7 167.34 80.04 176.66 76.95 176.32 75.92 172.02 77.35 169.43 78.3 174.8 70.99 174.67 70.62 165.38 73.71 165.72 74.73"/><path class="cls-1" d="M31.19,104.16H167.24v-1.31H134.43V59.46L99.54,44.27v9.84l-35.94,9,.59,2.39,35.35-8.82v2.11L67.72,66.72V77.06L57,79.74l.6,2.39,42-10.49v2.1l-39.6,9.87v19.24H31.19ZM121,66.79h7.92v9.38H121Zm7.92-1.32H121V55.05l7.92,3.45Zm-28.09-19.2,18.85,8.21v23h10.56V59.07l2.86,1.25V82.26H100.85Zm9,41.28h12.24v6.19H109.87Zm12.24-1.31H109.87V83.57h12.24ZM69,76.73v-9l30.5-7.63v9Zm30.5-1.64v8.48h9V95.05h14.87V83.57h9.7V99.12H61.26V84.64ZM61.26,100.43h71.86v2.42H61.26Z"/><rect class="cls-1" x="31.19" y="147.58" width="136.05" height="1.32"/><polygon class="cls-1" points="74.68 165.61 78.62 165.61 78.62 164.51 74.68 164.51 74.68 161.05 78.79 161.05 78.79 159.94 73.48 159.94 73.48 170.53 78.91 170.53 78.91 169.36 74.68 169.36 74.68 165.61"/><polygon class="cls-1" points="79.86 161.08 82.59 161.08 82.59 170.53 83.75 170.53 83.75 161.08 86.49 161.08 86.49 159.94 79.86 159.94 79.86 161.08"/><path class="cls-1" d="M93,165a2.36,2.36,0,0,0,1.25-2.19,2.69,2.69,0,0,0-2.82-2.88H87.86v10.59h3.75a2.85,2.85,0,0,0,3-3A2.54,2.54,0,0,0,93,165Zm-3.93-4h2.28a1.69,1.69,0,0,1,1.74,1.83,1.66,1.66,0,0,1-1.74,1.77H89.06Zm2.57,8.44H89.06v-3.78h2.43a1.82,1.82,0,0,1,2,1.89A1.7,1.7,0,0,1,91.63,169.44Z"/><polygon class="cls-1" points="103.71 169.53 101.96 169.53 101.96 159.94 99.3 159.94 99.3 160.94 100.82 160.94 100.82 169.53 99.08 169.53 99.08 170.53 103.71 170.53 103.71 169.53"/><path class="cls-1" d="M107.55,159.79a3.18,3.18,0,0,0-3.31,3.47c0,2.2,1.36,3.43,3.16,3.38a1.85,1.85,0,0,0,1-.24l-2.28,4.13h1.32l2.79-5.1a4.23,4.23,0,0,0,.59-2.17A3.17,3.17,0,0,0,107.55,159.79Zm0,5.85a2.4,2.4,0,1,1,2.12-2.38A2.14,2.14,0,0,1,107.55,165.64Z"/><path class="cls-1" d="M115.05,159.79a3.18,3.18,0,0,0-3.31,3.47c0,2.2,1.36,3.43,3.16,3.38a1.85,1.85,0,0,0,1-.24l-2.28,4.13H115l2.79-5.1a4.23,4.23,0,0,0,.59-2.17A3.17,3.17,0,0,0,115.05,159.79Zm0,5.85a2.4,2.4,0,1,1,2.12-2.38A2.14,2.14,0,0,1,115.05,165.64Z"/><path class="cls-1" d="M122.9,164.1l2.49-4v-.2h-5.65V161h3.88l-2.34,3.75v.28c1.66-.46,3,.29,3,2.17,0,1.51-.82,2.36-2,2.36a1.84,1.84,0,0,1-1.89-1.89h-1.07a2.94,2.94,0,0,0,3,3c2,0,3.11-1.44,3.11-3.46C125.42,165.51,124.5,164.1,122.9,164.1Z"/><rect class="cls-1" x="59.38" y="165.37" width="9.32" height="0.99"/><rect class="cls-1" x="129.73" y="165.37" width="9.32" height="0.99"/><polygon class="cls-1" points="31.47 112.58 31.47 138.79 44.68 138.79 44.68 135.98 34.42 135.98 34.42 112.58 31.47 112.58"/><path class="cls-1" d="M44.9,125.68c0,8.13,4.49,13.48,11.27,13.48s11.34-5.35,11.34-13.48S63,112.2,56.21,112.2,44.9,117.56,44.9,125.68Zm11.31-10.63c5,0,8.35,4.19,8.35,10.63s-3.34,10.6-8.35,10.6-8.32-4.23-8.32-10.6S51.23,115.05,56.21,115.05Z"/><path class="cls-1" d="M69.53,127.26V130c0,5.69,3.48,9.17,8.16,9.17s8.39-3.37,8.39-9.17V112.58h-8.2v2.77h5.24V130c0,4.08-2.25,6.37-5.43,6.37S72.3,134.11,72.3,130v-2.69Z"/><polygon class="cls-1" points="99.37 133.43 99.33 133.43 96.19 123.66 92.37 112.58 89.33 112.58 89.33 113.03 98.69 139.16 99.93 139.16 109.22 113.03 109.22 112.58 106.15 112.58 102.4 123.62 99.37 133.43"/><polygon class="cls-1" points="111.36 136.28 111.36 138.79 121.84 138.79 121.84 136.28 118.09 136.28 118.09 115.05 121.58 115.05 121.58 112.58 111.62 112.58 111.62 115.05 115.1 115.05 115.1 136.28 111.36 136.28"/><path class="cls-1" d="M127.21,112.58v26.21h3V127.18a18.22,18.22,0,0,0,4.79-.49l6.81,12.1h3.3v-.45l-7.64-12.92c1.54-1.61,2.28-4.53,3-7.22s1.61-4,4-3.67v-2.1c-4.27-.9-5.84,1.38-6.7,4.87-.56,2.47-1.31,5.54-2.7,6.51-1,.71-2.88.75-4.86.75v-12Z"/><path class="cls-1" d="M167.52,136h-9.4L165,125.53a11.52,11.52,0,0,0,2-7.3,6.22,6.22,0,0,0-6.44-6c-4.3,0-6.48,2.81-6.66,7.23h2.43c.23-3.14,1.61-4.53,4.16-4.53,4.83,0,4.68,5.8,2.06,9.7l-9.07,13.51v.68h14.05Z"/><path class="cls-1" d="M54.33,108.92a1.63,1.63,0,0,0-1.68-1.72,1.67,1.67,0,0,0-1.72,1.72,1.7,1.7,0,0,0,3.4,0Z"/><path class="cls-1" d="M61.52,108.92a1.63,1.63,0,0,0-1.68-1.72,1.67,1.67,0,0,0-1.72,1.72,1.64,1.64,0,0,0,1.72,1.68A1.61,1.61,0,0,0,61.52,108.92Z"/></svg>