<svg id="Lager_1" data-name="Lager 1" xmlns="http://www.w3.org/2000/svg" viewBox="0 0 85.04 28.35"><title>wordmark</title><rect width="84.86" height="0.83"/><rect y="27.52" width="84.86" height="0.83"/><polygon points="0.18 6.13 0.18 22.63 8.5 22.63 8.5 20.86 2.04 20.86 2.04 6.13 0.18 6.13"/><path d="M15.41,21.05c3.16,0,5.26-2.67,5.26-6.67s-2.1-6.7-5.26-6.7-5.23,2.64-5.23,6.7,2.09,6.67,5.23,6.67m0,1.81c-4.27,0-7.1-3.37-7.1-8.48s2.85-8.49,7.12-8.49,7.12,3.37,7.12,8.49-2.85,8.48-7.14,8.48" transform="translate(0 0)"/><path d="M28.92,22.86c-3,0-5.14-2.19-5.14-5.77V15.37h1.75v1.69c0,2.62,1.39,4,3.39,4s3.42-1.44,3.42-4V7.87H29V6.13H34.2v11c0,3.65-2.31,5.77-5.28,5.77" transform="translate(0 0)"/><polygon points="48.75 6.13 48.75 6.41 42.91 22.86 42.13 22.86 36.24 6.41 36.24 6.13 38.15 6.13 40.55 13.1 42.53 19.25 42.55 19.25 44.46 13.08 46.82 6.13 48.75 6.13"/><polygon points="50.1 21.05 52.46 21.05 52.46 7.68 50.27 7.68 50.27 6.13 56.53 6.13 56.53 7.68 54.34 7.68 54.34 21.05 56.7 21.05 56.7 22.63 50.1 22.63 50.1 21.05"/><path d="M64.76,13.2c.87-.62,1.34-2.55,1.7-4.1C67,6.9,68,5.47,70.68,6V7.35c-1.54-.21-2.12.59-2.55,2.31s-.89,3.54-1.86,4.55l4.81,8.13v.29H69L64.71,15a11.62,11.62,0,0,1-3,.31v7.31H59.83V6.13H61.7v7.54a5.89,5.89,0,0,0,3.06-.47" transform="translate(0 0)"/><path d="M78,10.44H76.46c.12-2.78,1.48-4.55,4.2-4.55a3.92,3.92,0,0,1,4,3.8,7.3,7.3,0,0,1-1.23,4.59l-4.36,6.6H85v1.75H76.2V22.2l5.7-8.51c1.65-2.45,1.75-6.1-1.29-6.1-1.6,0-2.48.87-2.62,2.85" transform="translate(0 0)"/><path d="M12.09,3.82a1,1,0,0,1,1.08-1.08,1,1,0,0,1,1.06,1.08,1.07,1.07,0,0,1-2.14,0" transform="translate(0 0)"/><path d="M16.61,3.82A1.05,1.05,0,0,1,17.7,2.74a1,1,0,0,1,1.06,1.08A1,1,0,0,1,17.7,4.88a1,1,0,0,1-1.09-1.06" transform="translate(0 0)"/></svg>